<svg width="40" height="40" viewBox="0 0 40 40" fill="none" xmlns="http://www.w3.org/2000/svg">
<g clip-path="url(#clip0_214_1565)">
<path d="M37.8141 9.36381H35.5839V7.52045C35.5839 7.1753 35.3041 6.89545 34.9589 6.89545H34.6777V3.53186C34.6777 3.1867 34.3979 2.90686 34.0527 2.90686H30.1147C29.7695 2.90686 29.4897 3.1867 29.4897 3.53186V6.89545H29.2084C28.8633 6.89545 28.5834 7.1753 28.5834 7.52045V9.36389H11.4166V7.52045C11.4166 7.1753 11.1367 6.89545 10.7916 6.89545H10.5104V3.53186C10.5104 3.1867 10.2305 2.90686 9.88539 2.90686H5.94727C5.60211 2.90686 5.32227 3.1867 5.32227 3.53186V6.89545H5.04109C4.69594 6.89545 4.41609 7.1753 4.41609 7.52045V9.36389H2.18594C0.980547 9.36389 0 10.3445 0 11.5498V34.9072C0 36.1126 0.980625 37.0931 2.18594 37.0931H37.8141C39.0195 37.0931 40 36.1125 40 34.9072V11.5498C40 10.3444 39.0194 9.36381 37.8141 9.36381ZM30.7397 4.15686H33.4277V6.89545H30.7397V4.15686ZM29.8334 8.14545H34.3338V9.36389H29.8334V8.14545ZM6.57227 4.15686H9.26039V6.89545H6.57227V4.15686ZM5.66609 8.14545H10.1665V9.36389H5.66609V8.14545ZM2.18594 10.6138H37.8141C38.3302 10.6138 38.75 11.0337 38.75 11.5498V13.6698H1.25V11.5498C1.25 11.0337 1.66984 10.6138 2.18594 10.6138ZM38.75 14.9199V31.5221H1.25V14.9199H38.75ZM37.8141 35.8431H2.18594C1.66984 35.8431 1.25 35.4233 1.25 34.9072V32.7721H38.75V34.9072C38.75 35.4233 38.3302 35.8431 37.8141 35.8431ZM27.4852 20.4318C27.4852 20.0866 27.7651 19.8068 28.1102 19.8068H30.3002V17.6169C30.3002 17.2717 30.58 16.9919 30.9252 16.9919C31.2703 16.9919 31.5502 17.2717 31.5502 17.6169V19.8068H33.74C34.0852 19.8068 34.365 20.0866 34.365 20.4318C34.365 20.7769 34.0852 21.0568 33.74 21.0568H31.5502V23.2466C31.5502 23.5918 31.2703 23.8716 30.9252 23.8716C30.58 23.8716 30.3002 23.5918 30.3002 23.2466V21.0568H28.1102C27.7651 21.0568 27.4852 20.7769 27.4852 20.4318ZM5.635 20.8086C5.635 20.4634 5.91484 20.1836 6.26 20.1836H11.8898C12.235 20.1836 12.5148 20.4634 12.5148 20.8086C12.5148 21.1537 12.235 21.4336 11.8898 21.4336H6.26C5.91484 21.4336 5.635 21.1537 5.635 20.8086ZM15.5306 24.7544H18.7746L18.2784 29.0063C18.2462 29.2826 18.4005 29.547 18.657 29.6549C18.7354 29.6879 18.8177 29.7038 18.899 29.7037C19.0836 29.7037 19.2638 29.6218 19.3853 29.4716L24.9555 22.5813C25.1069 22.394 25.1372 22.1365 25.0334 21.919C24.9296 21.7018 24.7102 21.5633 24.4694 21.5633H21.1857L21.4273 17.4144C21.4432 17.1415 21.2798 16.8898 21.0239 16.7933C20.7683 16.6969 20.4791 16.778 20.3109 16.9935L15.0381 23.7448C14.891 23.9331 14.8641 24.1888 14.9689 24.4036C15.0737 24.6182 15.2916 24.7544 15.5306 24.7544ZM20.063 19.3415L19.8993 22.1521C19.8893 22.3238 19.9505 22.4922 20.0686 22.6173C20.1867 22.7425 20.3512 22.8134 20.5232 22.8134H23.1605L19.7702 27.0072L20.0975 24.202C20.1182 24.0248 20.0622 23.8472 19.9435 23.714C19.8249 23.5808 19.6551 23.5045 19.4766 23.5045H16.8117L20.063 19.3415Z" fill="white"/>
</g>
<defs>
<clipPath id="clip0_214_1565">
<rect width="40" height="40" fill="white"/>
</clipPath>
</defs>
</svg>
