<svg width="14" height="14" viewBox="0 0 14 14" fill="none" xmlns="http://www.w3.org/2000/svg">
<g clip-path="url(#clip0_330_3595)">
<path d="M5.24996 12.8334C5.57213 12.8334 5.83329 12.5722 5.83329 12.2501C5.83329 11.9279 5.57213 11.6667 5.24996 11.6667C4.92779 11.6667 4.66663 11.9279 4.66663 12.2501C4.66663 12.5722 4.92779 12.8334 5.24996 12.8334Z" stroke="#020D00" stroke-linecap="round" stroke-linejoin="round"/>
<path d="M11.6667 12.8334C11.9889 12.8334 12.25 12.5722 12.25 12.2501C12.25 11.9279 11.9889 11.6667 11.6667 11.6667C11.3445 11.6667 11.0834 11.9279 11.0834 12.2501C11.0834 12.5722 11.3445 12.8334 11.6667 12.8334Z" stroke="#020D00" stroke-linecap="round" stroke-linejoin="round"/>
<path d="M0.583374 0.583252H2.91671L4.48004 8.39409C4.53338 8.66265 4.67949 8.9039 4.89278 9.07559C5.10606 9.24729 5.37295 9.3385 5.64671 9.33325H11.3167C11.5905 9.3385 11.8574 9.24729 12.0706 9.07559C12.2839 8.9039 12.43 8.66265 12.4834 8.39409L13.4167 3.49992H3.50004" stroke="#020D00" stroke-linecap="round" stroke-linejoin="round"/>
</g>
<defs>
<clipPath id="clip0_330_3595">
<rect width="14" height="14" fill="white"/>
</clipPath>
</defs>
</svg>
