<svg width="40" height="40" viewBox="0 0 40 40" fill="none" xmlns="http://www.w3.org/2000/svg">
<g clip-path="url(#clip0_214_1589)">
<path d="M21.0048 26.8005V25.8139C19.4992 25.5149 18.3606 24.184 18.3606 22.592C18.3606 22.2239 18.659 21.9255 19.0271 21.9255C19.3952 21.9255 19.6936 22.2239 19.6936 22.592C19.6936 23.6684 20.5694 24.5441 21.6458 24.5441C22.7222 24.5441 23.5979 23.6684 23.5979 22.592C23.5979 21.5156 22.7222 20.6399 21.6458 20.6399C19.8343 20.6399 18.3606 19.1662 18.3606 17.3548C18.3606 15.7627 19.4992 14.432 21.0048 14.133V13.1372C21.0048 12.7691 21.3032 12.4707 21.6713 12.4707C22.0394 12.4707 22.3378 12.7691 22.3378 13.1372V14.1437C23.8179 14.4625 24.9308 15.7808 24.9308 17.3548C24.9308 17.7229 24.6324 18.0213 24.2643 18.0213C23.8962 18.0213 23.5978 17.7229 23.5978 17.3548C23.5978 16.2784 22.7221 15.4027 21.6457 15.4027C20.5693 15.4027 19.6935 16.2784 19.6935 17.3548C19.6935 18.4312 20.5693 19.3069 21.6457 19.3069C23.4571 19.3069 24.9308 20.7806 24.9308 22.592C24.9308 24.166 23.8179 25.4844 22.3378 25.8031V26.8005C22.3378 27.1685 22.0394 27.467 21.6713 27.467C21.3032 27.467 21.0048 27.1686 21.0048 26.8005ZM34.5996 7.01958C27.5149 -0.0653118 16.4223 -0.1093 9.25838 6.4763C5.87281 9.58852 3.78058 13.7917 3.36719 18.3114C3.33369 18.678 3.60363 19.0023 3.9702 19.0359C4.33711 19.0687 4.66111 18.7995 4.69469 18.4329C5.48882 9.75207 12.9346 2.95218 21.6459 2.95218C31.0314 2.95218 38.6672 10.5879 38.6672 19.9735C38.6672 32.2454 26.0118 40.4489 14.9109 35.5889C19.4697 30.6297 16.7604 22.8282 10.4694 21.4162C9.59846 14.6719 14.88 8.68142 21.6744 8.68142C27.9038 8.68142 32.9719 13.7495 32.9719 19.9789C32.9719 26.2084 27.9039 31.2764 21.6744 31.2764C21.3063 31.2764 21.0079 31.5749 21.0079 31.9429C21.0079 32.311 21.3063 32.6094 21.6744 32.6094C28.6132 32.6094 34.3049 26.9161 34.3049 19.9789C34.3049 13.0401 28.6116 7.34842 21.6744 7.34842C14.29 7.34842 8.36469 13.7828 9.10642 21.2249C6.64628 21.0792 4.28912 21.9818 2.53589 23.735C-2.96181 29.2327 1.129 38.381 8.59605 38.381C8.96412 38.381 9.26255 38.0826 9.26255 37.7145C9.26255 37.3464 8.96412 37.048 8.59605 37.048C4.5968 37.048 1.34319 33.7944 1.34319 29.7951C1.34319 25.3497 5.3242 21.9397 9.72493 22.6303C9.75276 22.6369 9.78125 22.6414 9.81008 22.6444C13.2334 23.2238 15.8489 26.2095 15.8489 29.7951C15.8488 33.1947 13.5918 34.9613 13.2562 35.3429C12.9712 35.6674 13.0647 36.1712 13.4462 36.372C25.2765 42.5535 40.0001 33.6553 40.0001 19.9735C40 15.1025 38.0822 10.502 34.5996 7.01958ZM9.34594 27.0504H7.97537L8.49557 26.5028C8.74909 26.2359 8.73834 25.8141 8.47141 25.5605C8.20448 25.307 7.78267 25.3178 7.52915 25.5847L5.94529 27.2519C5.70085 27.5091 5.70085 27.9128 5.94529 28.17L7.52915 29.8373C7.78275 30.1043 8.20473 30.1149 8.47141 29.8615C8.73834 29.6079 8.74909 29.1861 8.49565 28.9192L7.9867 28.3834H9.34602C10.4026 28.3834 11.2622 29.243 11.2622 30.2996C11.2622 31.3562 10.4026 32.2158 9.34602 32.2158H6.09184C5.72376 32.2158 5.42534 32.5142 5.42534 32.8823C5.42534 33.2504 5.72376 33.5488 6.09184 33.5488H9.34594C11.1376 33.5488 12.5951 32.0912 12.5951 30.2996C12.5951 28.508 11.1376 27.0504 9.34594 27.0504Z" fill="white"/>
</g>
<defs>
<clipPath id="clip0_214_1589">
<rect width="40" height="40" fill="white"/>
</clipPath>
</defs>
</svg>
