<svg width="40" height="40" viewBox="0 0 40 40" fill="none" xmlns="http://www.w3.org/2000/svg">
<g clip-path="url(#clip0_313_344)">
<path d="M20 11.7578C16.7693 11.7578 14.1406 9.12914 14.1406 5.89844C14.1406 2.66773 16.7693 0.0390625 20 0.0390625C23.2307 0.0390625 25.8594 2.66773 25.8594 5.89844C25.8594 9.12914 23.2307 11.7578 20 11.7578Z" fill="#BDBBFF"/>
<path d="M0.783307 33.5157C-0.831459 30.7177 0.130963 27.1276 2.92909 25.5117C5.78464 23.8645 9.34182 24.9019 10.9331 27.6564C12.552 30.4587 11.5924 34.0405 8.78846 35.6603C5.97909 37.2804 2.4012 36.3163 0.783307 33.5157Z" fill="#BDBBFF"/>
<path d="M31.2116 35.6604C28.4095 34.0415 27.4472 30.4603 29.067 27.6564C30.6582 24.902 34.2153 23.8644 37.071 25.5118C39.869 27.1277 40.8315 30.7177 39.2168 33.5157C37.6009 36.3128 34.025 37.2828 31.2116 35.6604Z" fill="#BDBBFF"/>
<path d="M4.78848 21.5304L2.44934 21.4022C2.75372 15.8587 5.71551 10.7271 10.3709 7.67383L11.6572 9.63305C7.6209 12.2802 5.05395 16.7284 4.78848 21.5304Z" fill="#BDBBFF"/>
<path d="M35.2115 21.5303C34.9461 16.7284 32.3791 12.2801 28.3428 9.63305L29.6291 7.67383C34.2846 10.7271 37.2463 15.8587 37.5507 21.4022L35.2115 21.5303Z" fill="#BDBBFF"/>
<path d="M20.0001 39.9609C17.2123 39.9609 14.547 39.3269 12.0762 38.0783L13.1336 35.9863C17.4137 38.1516 22.5864 38.1516 26.8665 35.9863L27.9239 38.0783C25.4532 39.3269 22.7879 39.9609 20.0001 39.9609Z" fill="#BDBBFF"/>
</g>
<defs>
<clipPath id="clip0_313_344">
<rect width="40" height="40" fill="white"/>
</clipPath>
</defs>
</svg>
