<svg width="40" height="40" viewBox="0 0 40 40" fill="none" xmlns="http://www.w3.org/2000/svg">
<g clip-path="url(#clip0_313_270)">
<path d="M39.8388 15.8133L32.7293 3.69906C32.4034 3.14366 31.6903 2.95531 31.1327 3.27734L26.872 5.73726L23.0342 4.32562C22.8929 4.27366 22.7499 4.23007 22.6057 4.19343C21.5252 3.91874 20.3798 4.07288 19.4024 4.63718L13.0585 8.29991C11.6572 9.1089 11.1771 10.9007 11.9861 12.3019C12.7951 13.7032 14.5869 14.1833 15.9882 13.3743L22.9496 9.35499C23.6748 8.93632 24.5682 8.93632 25.2934 9.35499C25.2934 9.35499 39.3189 17.4554 39.3639 17.4832L39.5729 17.3112C40.0176 16.9451 40.1303 16.3101 39.8388 15.8133Z" fill="#A9FBE5"/>
<path d="M38.0567 19.4302L24.1217 11.3849L17.1602 15.4041C16.3477 15.8733 15.4459 16.1129 14.5321 16.1129C14.074 16.1129 13.613 16.0526 13.1587 15.931C11.798 15.5664 10.6608 14.6938 9.95655 13.4739C9.25226 12.2541 9.06523 10.833 9.42984 9.47233C9.73077 8.34905 10.3787 7.37881 11.2818 6.67795L8.40851 5.01905C7.83562 4.68827 7.10257 4.89702 6.78984 5.47999L0.139601 17.8786C-0.159539 18.4363 0.0381952 19.1309 0.586398 19.4473L1.19554 19.799L2.26468 17.9471C3.15163 16.4108 4.8053 15.4564 6.5803 15.4564C7.45124 15.4564 8.31155 15.6873 9.06812 16.1241C9.50335 16.3754 9.89155 16.6851 10.2249 17.0423C10.7637 16.8456 11.3393 16.7399 11.9285 16.7399C12.7994 16.7399 13.6597 16.9708 14.4163 17.4076C15.5684 18.0727 16.3925 19.1468 16.7368 20.4318C16.7747 20.5731 16.8051 20.7151 16.8304 20.8575C17.3096 20.9682 17.7725 21.1496 18.2019 21.3976C19.3541 22.0626 20.1782 23.1367 20.5225 24.4217C20.5604 24.563 20.5908 24.7051 20.6161 24.8474C21.0953 24.9581 21.5581 25.1394 21.9876 25.3874C24.3659 26.7606 25.1837 29.8126 23.8107 32.1908L22.3508 34.7194L25.4801 36.5262C26.7412 37.2543 28.3537 36.8222 29.0819 35.5611C29.81 34.2999 29.3779 32.6873 28.1168 31.9592L30.1466 33.1311C31.4076 33.8592 33.0202 33.4271 33.7484 32.166C34.4765 30.9049 34.0444 29.2923 32.7833 28.5641L34.1365 29.3454C35.3976 30.0735 37.0102 29.6414 37.7383 28.3802C38.4664 27.1191 38.0343 25.5065 36.7731 24.7784L35.42 23.9972C36.6811 24.7253 38.2937 24.2932 39.0218 23.032C39.7499 21.7709 39.3178 20.1583 38.0567 19.4302Z" fill="#A9FBE5"/>
<path d="M20.8155 27.4169C19.5544 26.6887 17.9418 27.1208 17.2137 28.3819L17.995 27.0288C18.7231 25.7677 18.291 24.1551 17.0299 23.427C15.7688 22.6989 14.1562 23.131 13.4281 24.3921L14.2093 23.0389C14.9375 21.7778 14.5053 20.1652 13.2443 19.4371C11.9832 18.709 10.3706 19.1411 9.64246 20.4022L8.86121 21.7553C9.58925 20.4942 9.15722 18.8816 7.89605 18.1535C6.63496 17.4254 5.02238 17.8575 4.29425 19.1186L1.46222 24.0238C0.734097 25.2849 1.16621 26.8976 2.4273 27.6256C3.68839 28.3537 5.30105 27.9216 6.0291 26.6605C5.30097 27.9216 5.73308 29.5342 6.99417 30.2623C8.25527 30.9904 9.86792 30.5583 10.596 29.2971C9.86785 30.5582 10.3 32.1708 11.5611 32.8989C12.8222 33.627 14.4348 33.1949 15.1629 31.9337C14.4348 33.1948 14.8669 34.8075 16.128 35.5355C17.3891 36.2637 19.0018 35.8316 19.7298 34.5704L21.7806 31.0183C22.5088 29.7576 22.0767 28.1449 20.8155 27.4169Z" fill="#A9FBE5"/>
</g>
<defs>
<clipPath id="clip0_313_270">
<rect width="40" height="40" fill="white"/>
</clipPath>
</defs>
</svg>
