<svg width="40" height="40" viewBox="0 0 40 40" fill="none" xmlns="http://www.w3.org/2000/svg">
<g clip-path="url(#clip0_214_1591)">
<path d="M34.3425 31.0733C33.6647 31.0738 33.0019 30.8732 32.4381 30.497C31.8742 30.1208 31.4346 29.5858 31.1749 28.9597C30.9152 28.3336 30.8469 27.6445 30.9789 26.9797C31.1108 26.3148 31.437 25.704 31.9161 25.2245C32.3952 24.745 33.0058 24.4184 33.6706 24.286C34.3353 24.1536 35.0245 24.2213 35.6507 24.4806C36.277 24.7399 36.8124 25.1791 37.189 25.7426C37.5656 26.3062 37.7667 26.9688 37.7667 27.6466C37.7662 28.5549 37.4054 29.4258 36.7634 30.0683C36.1214 30.7107 35.2507 31.0722 34.3425 31.0733ZM34.3425 25.47C33.9119 25.4695 33.4908 25.5967 33.1325 25.8356C32.7742 26.0745 32.4949 26.4142 32.3297 26.8119C32.1646 27.2096 32.1211 27.6474 32.2049 28.0698C32.2886 28.4921 32.4957 28.8802 32.8 29.1849C33.1043 29.4896 33.4921 29.6971 33.9144 29.7813C34.3367 29.8655 34.7745 29.8225 35.1724 29.6579C35.5703 29.4932 35.9104 29.2142 36.1497 28.8562C36.3889 28.4982 36.5167 28.0772 36.5167 27.6466C36.5164 27.0698 36.2874 26.5167 35.8798 26.1086C35.4722 25.7005 34.9193 25.4709 34.3425 25.47Z" fill="white"/>
<path d="M16.285 31.0733C15.6071 31.074 14.9443 30.8736 14.3803 30.4974C13.8164 30.1213 13.3766 29.5864 13.1168 28.9603C12.8569 28.3342 12.7886 27.6451 12.9204 26.9802C13.0523 26.3152 13.3784 25.7044 13.8574 25.2248C14.3365 24.7452 14.9471 24.4185 15.6119 24.2861C16.2767 24.1536 16.9659 24.2212 17.5922 24.4805C18.2185 24.7398 18.7539 25.179 19.1306 25.7425C19.5073 26.3061 19.7083 26.9688 19.7083 27.6466C19.7077 28.5547 19.3469 29.4254 18.7051 30.0677C18.0634 30.7101 17.193 31.0718 16.285 31.0733ZM16.285 25.47C15.8543 25.4693 15.4332 25.5964 15.0748 25.8352C14.7164 26.074 14.4369 26.4137 14.2716 26.8114C14.1064 27.209 14.0628 27.6468 14.1464 28.0692C14.23 28.4917 14.4371 28.8798 14.7413 29.1846C15.0456 29.4893 15.4335 29.697 15.8558 29.7812C16.2781 29.8655 16.7159 29.8226 17.1139 29.6579C17.5118 29.4933 17.8519 29.2143 18.0912 28.8563C18.3306 28.4983 18.4583 28.0773 18.4583 27.6466C18.4579 27.0701 18.2289 26.5172 17.8215 26.1092C17.4141 25.7012 16.8616 25.4713 16.285 25.47Z" fill="white"/>
<path d="M38.8508 28.2716H37.1416C36.9759 28.2716 36.8169 28.2058 36.6997 28.0886C36.5825 27.9714 36.5166 27.8124 36.5166 27.6466C36.5166 27.4809 36.5825 27.3219 36.6997 27.2047C36.8169 27.0875 36.9759 27.0216 37.1416 27.0216H38.6741V23.7075C38.6737 23.2594 38.559 22.8188 38.3408 22.4275L34.9575 16.3616C34.9285 16.3099 34.8864 16.2667 34.8352 16.2367C34.7841 16.2067 34.7259 16.1908 34.6666 16.1908H30.0558V27.0241H31.5441C31.7099 27.0241 31.8689 27.09 31.9861 27.2072C32.1033 27.3244 32.1691 27.4834 32.1691 27.6491C32.1691 27.8149 32.1033 27.9739 31.9861 28.0911C31.8689 28.2083 31.7099 28.2741 31.5441 28.2741H29.4308C29.265 28.2741 29.1061 28.2083 28.9888 28.0911C28.8716 27.9739 28.8058 27.8149 28.8058 27.6491V15.5658C28.8058 15.4 28.8716 15.2411 28.9888 15.1239C29.1061 15.0066 29.265 14.9408 29.4308 14.9408H34.6666C34.9486 14.9407 35.2255 15.0158 35.4687 15.1585C35.7119 15.3012 35.9125 15.5063 36.05 15.7525L39.4325 21.8191C39.754 22.3966 39.923 23.0465 39.9233 23.7075V27.1991C39.9228 27.4834 39.8097 27.756 39.6087 27.957C39.4076 28.1581 39.1351 28.2712 38.8508 28.2716Z" fill="white"/>
<path d="M13.4858 28.2716H7.49329C7.32753 28.2716 7.16855 28.2058 7.05134 28.0886C6.93413 27.9714 6.86829 27.8124 6.86829 27.6466V22.84C6.86829 22.6742 6.93413 22.5152 7.05134 22.398C7.16855 22.2808 7.32753 22.215 7.49329 22.215C7.65905 22.215 7.81802 22.2808 7.93523 22.398C8.05244 22.5152 8.11829 22.6742 8.11829 22.84V27.0216H13.4858C13.6515 27.0216 13.8105 27.0875 13.9277 27.2047C14.0449 27.3219 14.1108 27.4809 14.1108 27.6466C14.1108 27.8124 14.0449 27.9714 13.9277 28.0886C13.8105 28.2058 13.6515 28.2716 13.4858 28.2716Z" fill="white"/>
<path d="M7.49329 20.6224C7.32753 20.6224 7.16855 20.5566 7.05134 20.4394C6.93413 20.3222 6.86829 20.1632 6.86829 19.9974V15.8008C6.86829 15.635 6.93413 15.476 7.05134 15.3588C7.16855 15.2416 7.32753 15.1758 7.49329 15.1758C7.65905 15.1758 7.81802 15.2416 7.93523 15.3588C8.05244 15.476 8.11829 15.635 8.11829 15.8008V19.9999C8.11762 20.1653 8.05149 20.3236 7.93435 20.4403C7.81721 20.5569 7.65861 20.6224 7.49329 20.6224Z" fill="white"/>
<path d="M29.4308 28.2716H19.0833C18.9175 28.2716 18.7586 28.2058 18.6413 28.0886C18.5241 27.9713 18.4583 27.8124 18.4583 27.6466C18.4583 27.4808 18.5241 27.3219 18.6413 27.2047C18.7586 27.0875 18.9175 27.0216 19.0833 27.0216H28.8058V10.6708H8.11829V13.2449C8.11829 13.4107 8.05244 13.5697 7.93523 13.6869C7.81802 13.8041 7.65905 13.8699 7.49329 13.8699C7.32753 13.8699 7.16855 13.8041 7.05134 13.6869C6.93413 13.5697 6.86829 13.4107 6.86829 13.2449V10.5558C6.86873 10.2547 6.98856 9.96619 7.2015 9.7534C7.41444 9.54062 7.70309 9.421 8.00412 9.42078H28.9208C29.2217 9.42122 29.5101 9.54094 29.7229 9.7537C29.9356 9.96646 30.0553 10.2549 30.0558 10.5558V27.6466C30.0558 27.8124 29.9899 27.9713 29.8727 28.0886C29.7555 28.2058 29.5965 28.2716 29.4308 28.2716Z" fill="white"/>
<path d="M9.96412 23.465H2.03162C1.86586 23.465 1.70688 23.3991 1.58967 23.2819C1.47246 23.1647 1.40662 23.0057 1.40662 22.84C1.40662 22.6742 1.47246 22.5152 1.58967 22.398C1.70688 22.2808 1.86586 22.215 2.03162 22.215H9.96412C10.1299 22.215 10.2888 22.2808 10.4061 22.398C10.5233 22.5152 10.5891 22.6742 10.5891 22.84C10.5891 23.0057 10.5233 23.1647 10.4061 23.2819C10.2888 23.3991 10.1299 23.465 9.96412 23.465Z" fill="white"/>
<path d="M16.285 20.6226H5.21582C5.05006 20.6226 4.89109 20.5567 4.77388 20.4395C4.65667 20.3223 4.59082 20.1633 4.59082 19.9976C4.59082 19.8318 4.65667 19.6728 4.77388 19.5556C4.89109 19.4384 5.05006 19.3726 5.21582 19.3726H16.285C16.4507 19.3726 16.6097 19.4384 16.7269 19.5556C16.8441 19.6728 16.91 19.8318 16.91 19.9976C16.91 20.1633 16.8441 20.3223 16.7269 20.4395C16.6097 20.5567 16.4507 20.6226 16.285 20.6226Z" fill="white"/>
<path d="M4.87169 17.3225H0.549194C0.383434 17.3225 0.224463 17.2567 0.107253 17.1395C-0.00995765 17.0222 -0.0758057 16.8633 -0.0758057 16.6975C-0.0758057 16.5317 -0.00995765 16.3728 0.107253 16.2556C0.224463 16.1384 0.383434 16.0725 0.549194 16.0725H4.87169C5.03745 16.0725 5.19643 16.1384 5.31364 16.2556C5.43085 16.3728 5.49669 16.5317 5.49669 16.6975C5.49669 16.8633 5.43085 17.0222 5.31364 17.1395C5.19643 17.2567 5.03745 17.3225 4.87169 17.3225Z" fill="white"/>
<path d="M11.8025 13.87H4.17249C4.00673 13.87 3.84775 13.8041 3.73054 13.6869C3.61333 13.5697 3.54749 13.4108 3.54749 13.245C3.54749 13.0792 3.61333 12.9203 3.73054 12.8031C3.84775 12.6858 4.00673 12.62 4.17249 12.62H11.8025C11.9682 12.62 12.1272 12.6858 12.2444 12.8031C12.3616 12.9203 12.4275 13.0792 12.4275 13.245C12.4275 13.4108 12.3616 13.5697 12.2444 13.6869C12.1272 13.8041 11.9682 13.87 11.8025 13.87Z" fill="white"/>
</g>
<defs>
<clipPath id="clip0_214_1591">
<rect width="40" height="40" fill="white"/>
</clipPath>
</defs>
</svg>
