<svg width="40" height="40" viewBox="0 0 40 40" fill="none" xmlns="http://www.w3.org/2000/svg">
<path d="M34.2259 21.353H31.1324C31.4478 22.2163 31.62 23.148 31.62 24.119V35.8104C31.62 36.2152 31.5496 36.6038 31.4214 36.9652H36.5355C38.4459 36.9652 40 35.411 40 33.5007V27.1272C40.0001 23.9433 37.4098 21.353 34.2259 21.353Z" fill="#1D7DB8"/>
<path d="M8.38009 24.119C8.38009 23.1479 8.55236 22.2163 8.86767 21.353H5.77423C2.59032 21.353 0 23.9433 0 27.1273V33.5008C0 35.4111 1.55414 36.9653 3.46454 36.9653H8.57877C8.45056 36.6038 8.38009 36.2152 8.38009 35.8104V24.119Z" fill="#1D7DB8"/>
<path d="M23.5361 18.3447H16.464C13.2801 18.3447 10.6898 20.935 10.6898 24.119V35.8104C10.6898 36.4481 11.2069 36.9652 11.8447 36.9652H28.1555C28.7933 36.9652 29.3103 36.4482 29.3103 35.8104V24.119C29.3103 20.935 26.72 18.3447 23.5361 18.3447Z" fill="#1D7DB8"/>
<path d="M20 3.03418C16.1709 3.03418 13.0558 6.14934 13.0558 9.97849C13.0558 12.5758 14.4893 14.8441 16.6063 16.0351C17.6105 16.5999 18.7681 16.9227 20 16.9227C21.2319 16.9227 22.3896 16.5999 23.3937 16.0351C25.5108 14.8441 26.9443 12.5757 26.9443 9.97849C26.9443 6.14942 23.8291 3.03418 20 3.03418Z" fill="#1D7DB8"/>
<path d="M7.80616 9.50684C4.94248 9.50684 2.61279 11.8365 2.61279 14.7002C2.61279 17.5639 4.94248 19.8936 7.80616 19.8936C8.53257 19.8936 9.22429 19.7431 9.85265 19.4726C10.9391 19.0049 11.8348 18.1769 12.3891 17.1398C12.7782 16.4119 12.9995 15.5815 12.9995 14.7002C12.9995 11.8366 10.6698 9.50684 7.80616 9.50684Z" fill="#1D7DB8"/>
<path d="M32.194 9.50684C29.3303 9.50684 27.0006 11.8365 27.0006 14.7002C27.0006 15.5816 27.2219 16.412 27.611 17.1398C28.1653 18.177 29.0611 19.005 30.1475 19.4726C30.7759 19.7431 31.4676 19.8936 32.194 19.8936C35.0577 19.8936 37.3874 17.5639 37.3874 14.7002C37.3874 11.8365 35.0577 9.50684 32.194 9.50684Z" fill="#1D7DB8"/>
</svg>
