<svg width="40" height="40" viewBox="0 0 40 40" fill="none" xmlns="http://www.w3.org/2000/svg">
<g clip-path="url(#clip0_303_8616)">
<path d="M34.3423 31.0731C33.6644 31.0736 33.0017 30.873 32.4378 30.4968C31.874 30.1206 31.4344 29.5856 31.1746 28.9595C30.9149 28.3334 30.8467 27.6443 30.9786 26.9794C31.1106 26.3145 31.4367 25.7037 31.9159 25.2243C32.395 24.7448 33.0055 24.4182 33.6703 24.2858C34.3351 24.1533 35.0242 24.221 35.6505 24.4803C36.2768 24.7396 36.8121 25.1788 37.1887 25.7424C37.5654 26.3059 37.7664 26.9686 37.7664 27.6464C37.766 28.5546 37.4052 29.4256 36.7632 30.068C36.1212 30.7105 35.2505 31.072 34.3423 31.0731ZM34.3423 25.4697C33.9116 25.4692 33.4906 25.5965 33.1323 25.8353C32.774 26.0742 32.4946 26.414 32.3295 26.8117C32.1644 27.2094 32.1209 27.6471 32.2046 28.0695C32.2883 28.4919 32.4954 28.88 32.7997 29.1846C33.104 29.4893 33.4919 29.6969 33.9142 29.7811C34.3365 29.8652 34.7743 29.8223 35.1722 29.6576C35.57 29.4929 35.9101 29.2139 36.1494 28.8559C36.3887 28.4979 36.5164 28.077 36.5164 27.6464C36.5162 27.0696 36.2871 26.5165 35.8795 26.1084C35.4719 25.7003 34.919 25.4706 34.3423 25.4697Z" fill="#1A1A1A"/>
<path d="M16.2855 31.0731C15.6076 31.0737 14.9448 30.8733 14.3808 30.4972C13.8169 30.1211 13.3771 29.5861 13.1173 28.96C12.8574 28.334 12.7891 27.6449 12.9209 26.9799C13.0527 26.315 13.3788 25.7041 13.8579 25.2246C14.337 24.745 14.9476 24.4183 15.6124 24.2858C16.2772 24.1533 16.9664 24.221 17.5927 24.4802C18.219 24.7395 18.7544 25.1787 19.1311 25.7423C19.5077 26.3059 19.7088 26.9685 19.7088 27.6464C19.7081 28.5544 19.3474 29.4251 18.7056 30.0675C18.0638 30.7099 17.1935 31.0715 16.2855 31.0731ZM16.2855 25.4697C15.8548 25.4691 15.4337 25.5962 15.0753 25.8349C14.7169 26.0737 14.4374 26.4134 14.2721 26.8111C14.1069 27.2088 14.0633 27.6465 14.1469 28.069C14.2305 28.4914 14.4375 28.8796 14.7418 29.1843C15.0461 29.4891 15.4339 29.6967 15.8563 29.781C16.2786 29.8652 16.7164 29.8223 17.1143 29.6577C17.5123 29.493 17.8524 29.2141 18.0917 28.856C18.3311 28.498 18.4588 28.077 18.4588 27.6464C18.4584 27.0698 18.2294 26.5169 17.822 26.1089C17.4146 25.7009 16.862 25.471 16.2855 25.4697Z" fill="#1A1A1A"/>
<path d="M38.8507 28.2718H37.1415C36.9757 28.2718 36.8168 28.2059 36.6996 28.0887C36.5823 27.9715 36.5165 27.8125 36.5165 27.6468C36.5165 27.481 36.5823 27.322 36.6996 27.2048C36.8168 27.0876 36.9757 27.0218 37.1415 27.0218H38.674V23.7076C38.6736 23.2595 38.5589 22.8189 38.3407 22.4276L34.9573 16.3618C34.9284 16.31 34.8862 16.2669 34.8351 16.2368C34.784 16.2068 34.7258 16.191 34.6665 16.1909H30.0557V27.0243H31.544C31.7098 27.0243 31.8687 27.0901 31.9859 27.2073C32.1031 27.3245 32.169 27.4835 32.169 27.6493C32.169 27.815 32.1031 27.974 31.9859 28.0912C31.8687 28.2084 31.7098 28.2743 31.544 28.2743H29.4307C29.2649 28.2743 29.1059 28.2084 28.9887 28.0912C28.8715 27.974 28.8057 27.815 28.8057 27.6493V15.5659C28.8057 15.4002 28.8715 15.2412 28.9887 15.124C29.1059 15.0068 29.2649 14.9409 29.4307 14.9409H34.6665C34.9485 14.9408 35.2253 15.0159 35.4685 15.1586C35.7117 15.3013 35.9124 15.5064 36.0498 15.7526L39.4323 21.8193C39.7539 22.3967 39.9228 23.0466 39.9232 23.7076V27.1993C39.9227 27.4836 39.8096 27.7561 39.6085 27.9571C39.4075 28.1582 39.135 28.2713 38.8507 28.2718Z" fill="#1A1A1A"/>
<path d="M13.4857 28.2715H7.49316C7.3274 28.2715 7.16843 28.2057 7.05122 28.0885C6.93401 27.9712 6.86816 27.8123 6.86816 27.6465V22.8398C6.86816 22.6741 6.93401 22.5151 7.05122 22.3979C7.16843 22.2807 7.3274 22.2148 7.49316 22.2148C7.65892 22.2148 7.8179 22.2807 7.93511 22.3979C8.05232 22.5151 8.11816 22.6741 8.11816 22.8398V27.0215H13.4857C13.6514 27.0215 13.8104 27.0874 13.9276 27.2046C14.0448 27.3218 14.1107 27.4807 14.1107 27.6465C14.1107 27.8123 14.0448 27.9712 13.9276 28.0885C13.8104 28.2057 13.6514 28.2715 13.4857 28.2715Z" fill="#1A1A1A"/>
<path d="M7.49316 20.6224C7.3274 20.6224 7.16843 20.5566 7.05122 20.4394C6.93401 20.3222 6.86816 20.1632 6.86816 19.9974V15.8008C6.86816 15.635 6.93401 15.476 7.05122 15.3588C7.16843 15.2416 7.3274 15.1758 7.49316 15.1758C7.65892 15.1758 7.8179 15.2416 7.93511 15.3588C8.05232 15.476 8.11816 15.635 8.11816 15.8008V19.9999C8.1175 20.1653 8.05136 20.3236 7.93422 20.4403C7.81709 20.5569 7.65849 20.6224 7.49316 20.6224Z" fill="#1A1A1A"/>
<path d="M29.4307 28.2717H19.0832C18.9174 28.2717 18.7584 28.2059 18.6412 28.0887C18.524 27.9715 18.4582 27.8125 18.4582 27.6467C18.4582 27.481 18.524 27.322 18.6412 27.2048C18.7584 27.0876 18.9174 27.0217 19.0832 27.0217H28.8057V10.6709H8.11816V13.2451C8.11816 13.4108 8.05232 13.5698 7.93511 13.687C7.8179 13.8042 7.65892 13.8701 7.49316 13.8701C7.3274 13.8701 7.16843 13.8042 7.05122 13.687C6.93401 13.5698 6.86816 13.4108 6.86816 13.2451V10.5559C6.86861 10.2549 6.98844 9.96631 7.20138 9.75352C7.41432 9.54074 7.70297 9.42112 8.004 9.4209H28.9207C29.2216 9.42134 29.51 9.54106 29.7227 9.75382C29.9355 9.96658 30.0552 10.255 30.0557 10.5559V27.6467C30.0557 27.8125 29.9898 27.9715 29.8726 28.0887C29.7554 28.2059 29.5964 28.2717 29.4307 28.2717Z" fill="#1A1A1A"/>
<path d="M9.96375 23.4648H2.03125C1.86549 23.4648 1.70652 23.399 1.58931 23.2818C1.4721 23.1646 1.40625 23.0056 1.40625 22.8398C1.40625 22.6741 1.4721 22.5151 1.58931 22.3979C1.70652 22.2807 1.86549 22.2148 2.03125 22.2148H9.96375C10.1295 22.2148 10.2885 22.2807 10.4057 22.3979C10.5229 22.5151 10.5887 22.6741 10.5887 22.8398C10.5887 23.0056 10.5229 23.1646 10.4057 23.2818C10.2885 23.399 10.1295 23.4648 9.96375 23.4648Z" fill="#1A1A1A"/>
<path d="M16.285 20.6226H5.21582C5.05006 20.6226 4.89109 20.5567 4.77388 20.4395C4.65667 20.3223 4.59082 20.1633 4.59082 19.9976C4.59082 19.8318 4.65667 19.6728 4.77388 19.5556C4.89109 19.4384 5.05006 19.3726 5.21582 19.3726H16.285C16.4507 19.3726 16.6097 19.4384 16.7269 19.5556C16.8441 19.6728 16.91 19.8318 16.91 19.9976C16.91 20.1633 16.8441 20.3223 16.7269 20.4395C16.6097 20.5567 16.4507 20.6226 16.285 20.6226Z" fill="#1A1A1A"/>
<path d="M4.87133 17.3223H0.548828C0.383068 17.3223 0.224097 17.2564 0.106886 17.1392C-0.0103239 17.022 -0.0761719 16.863 -0.0761719 16.6973C-0.0761719 16.5315 -0.0103239 16.3725 0.106886 16.2553C0.224097 16.1381 0.383068 16.0723 0.548828 16.0723H4.87133C5.03709 16.0723 5.19606 16.1381 5.31327 16.2553C5.43048 16.3725 5.49633 16.5315 5.49633 16.6973C5.49633 16.863 5.43048 17.022 5.31327 17.1392C5.19606 17.2564 5.03709 17.3223 4.87133 17.3223Z" fill="#1A1A1A"/>
<path d="M11.8029 13.8701H4.17285C4.00709 13.8701 3.84812 13.8043 3.73091 13.6871C3.6137 13.5698 3.54785 13.4109 3.54785 13.2451C3.54785 13.0794 3.6137 12.9204 3.73091 12.8032C3.84812 12.686 4.00709 12.6201 4.17285 12.6201H11.8029C11.9686 12.6201 12.1276 12.686 12.2448 12.8032C12.362 12.9204 12.4279 13.0794 12.4279 13.2451C12.4279 13.4109 12.362 13.5698 12.2448 13.6871C12.1276 13.8043 11.9686 13.8701 11.8029 13.8701Z" fill="#1A1A1A"/>
</g>
<defs>
<clipPath id="clip0_303_8616">
<rect width="40" height="40" fill="white"/>
</clipPath>
</defs>
</svg>
