<svg width="40" height="40" viewBox="0 0 40 40" fill="none" xmlns="http://www.w3.org/2000/svg">
<path d="M35.7692 1.92285H4.23078C1.89789 1.92285 0 3.82082 0 6.15363V23.4613V26.1536C0 28.4864 1.89789 30.3844 4.23078 30.3844H14.4463L13.2155 36.5382H9.23078C8.80594 36.5382 8.46156 36.8826 8.46156 37.3075C8.46156 37.7323 8.80594 38.0767 9.23078 38.0767H30.7692C31.1941 38.0767 31.5384 37.7323 31.5384 37.3075C31.5384 36.8826 31.1941 36.5382 30.7692 36.5382H26.7845L25.5537 30.3844H35.7692C38.102 30.3844 40 28.4865 40 26.1536V23.4613V6.15363C40 3.82082 38.1021 1.92285 35.7692 1.92285ZM14.7845 36.5382L16.0152 30.3844H23.9848L25.2155 36.5382H14.7845ZM38.4616 26.1536C38.4616 27.6382 37.2538 28.846 35.7692 28.846H4.23078C2.74625 28.846 1.53844 27.6382 1.53844 26.1536V24.2306H38.4615V26.1536H38.4616ZM38.4616 22.6922H1.53844V21.1537H6.15383C6.57867 21.1537 6.92305 20.8093 6.92305 20.3845C6.92305 19.9596 6.57867 19.6153 6.15383 19.6153H1.53844V6.15363C1.53844 4.6691 2.74617 3.46129 4.23078 3.46129H35.7692C37.2537 3.46129 38.4616 4.66902 38.4616 6.15363V22.6922Z" fill="#1A1A1A"/>
<path d="M19.9999 25C19.1516 25 18.4614 25.6902 18.4614 26.5384C18.4614 27.3867 19.1516 28.0769 19.9999 28.0769C20.8481 28.0769 21.5383 27.3867 21.5383 26.5384C21.5383 25.6902 20.8481 25 19.9999 25Z" fill="#1A1A1A"/>
<path d="M26.2979 16.6553L24.6661 15.0235L26.026 13.6637C26.2237 13.466 26.2986 13.1765 26.2215 12.9077C26.1443 12.6389 25.9275 12.4332 25.655 12.3702L18.5839 10.7384C18.3255 10.6789 18.0546 10.7564 17.8669 10.944C17.6794 11.1316 17.6017 11.4025 17.6613 11.661L19.2932 18.732C19.3561 19.0044 19.5619 19.2214 19.8307 19.2985C20.0997 19.3755 20.389 19.3007 20.5868 19.103L21.9465 17.7432L23.5783 19.375C23.7286 19.5252 23.9254 19.6003 24.1222 19.6003C24.319 19.6003 24.516 19.5252 24.6661 19.375L26.2979 17.7432C26.5982 17.4428 26.5982 16.9557 26.2979 16.6553ZM24.1222 17.7432L22.4904 16.1114C22.3402 15.9611 22.1433 15.886 21.9465 15.886C21.7497 15.886 21.5528 15.9611 21.4026 16.1114L20.4803 17.0338L19.4373 12.5143L23.9568 13.5572L23.0343 14.4796C22.734 14.78 22.734 15.2671 23.0343 15.5675L24.6661 17.1992L24.1222 17.7432Z" fill="#1A1A1A"/>
<path d="M16.8339 8.82264L16.0646 8.05342C15.7643 7.75303 15.2771 7.75303 14.9768 8.05342C14.6764 8.35381 14.6764 8.84084 14.9768 9.14131L15.7461 9.91053C15.8963 10.0608 16.0932 10.1358 16.29 10.1358C16.4868 10.1358 16.6837 10.0608 16.8339 9.91053C17.1343 9.61022 17.1343 9.12311 16.8339 8.82264Z" fill="#1A1A1A"/>
<path d="M15.3341 10.9053H14.2463C13.8214 10.9053 13.4771 11.2496 13.4771 11.6745C13.4771 12.0993 13.8214 12.4437 14.2463 12.4437H15.3341C15.7589 12.4437 16.1033 12.0993 16.1033 11.6745C16.1033 11.2496 15.7589 10.9053 15.3341 10.9053Z" fill="#1A1A1A"/>
<path d="M16.8338 13.4382C16.5335 13.1378 16.0464 13.1378 15.746 13.4382L14.9768 14.2074C14.6764 14.5078 14.6764 14.9949 14.9768 15.2953C15.127 15.4455 15.3239 15.5206 15.5207 15.5206C15.7175 15.5206 15.9144 15.4455 16.0646 15.2953L16.8338 14.5261C17.1342 14.2258 17.1342 13.7387 16.8338 13.4382Z" fill="#1A1A1A"/>
<path d="M22.2181 8.05342C21.9178 7.75303 21.4307 7.75303 21.1303 8.05342L20.361 8.82264C20.0606 9.12303 20.0606 9.61014 20.361 9.91053C20.5113 10.0608 20.7081 10.1358 20.905 10.1358C21.1019 10.1358 21.2988 10.0608 21.4489 9.91053L22.2181 9.14131C22.5185 8.841 22.5185 8.35389 22.2181 8.05342Z" fill="#1A1A1A"/>
<path d="M18.5973 6.55371C18.1725 6.55371 17.8281 6.89809 17.8281 7.32293V8.41074C17.8281 8.83559 18.1725 9.17996 18.5973 9.17996C19.0222 9.17996 19.3666 8.83559 19.3666 8.41074V7.32293C19.3666 6.89809 19.0222 6.55371 18.5973 6.55371Z" fill="#1A1A1A"/>
<path d="M9.21543 20.2346C9.20621 20.1854 9.19082 20.137 9.1716 20.09C9.15238 20.0438 9.12855 19.9992 9.10082 19.9577C9.07316 19.9153 9.04082 19.8761 9.00543 19.8407C8.97004 19.8053 8.93082 19.7731 8.88848 19.7453C8.84691 19.7177 8.8023 19.6938 8.75543 19.6746C8.70926 19.6553 8.66082 19.6399 8.6116 19.6307C8.51238 19.6107 8.41082 19.6107 8.3116 19.6307C8.26238 19.6399 8.21395 19.6553 8.16777 19.6746C8.12082 19.6938 8.07621 19.7176 8.03473 19.7453C7.99238 19.773 7.95316 19.8053 7.91777 19.8407C7.88238 19.8761 7.85012 19.9153 7.82238 19.9577C7.79473 19.9992 7.77082 20.0438 7.7516 20.09C7.73238 20.137 7.71699 20.1854 7.70777 20.2346C7.69777 20.2838 7.69238 20.3346 7.69238 20.3846C7.69238 20.4346 7.69777 20.4854 7.70777 20.5346C7.71699 20.5838 7.73238 20.6323 7.7516 20.6785C7.77082 20.7254 7.79465 20.77 7.82238 20.8115C7.85004 20.8538 7.88238 20.8931 7.91777 20.9285C7.95316 20.9638 7.99238 20.9961 8.03473 21.0238C8.07629 21.0515 8.1209 21.0754 8.16777 21.0946C8.21395 21.1138 8.26238 21.1292 8.3116 21.1392C8.36082 21.1492 8.4116 21.1538 8.4616 21.1538C8.5116 21.1538 8.56238 21.1492 8.6116 21.1392C8.66082 21.1292 8.70926 21.1138 8.75543 21.0946C8.80238 21.0754 8.84699 21.0516 8.88848 21.0238C8.93082 20.9962 8.97004 20.9638 9.00543 20.9285C9.04082 20.8931 9.07309 20.8538 9.10082 20.8115C9.12848 20.7699 9.15238 20.7253 9.1716 20.6785C9.19082 20.6323 9.20621 20.5838 9.21543 20.5346C9.22543 20.4854 9.23082 20.4346 9.23082 20.3846C9.23082 20.3346 9.22543 20.2838 9.21543 20.2346Z" fill="#1A1A1A"/>
</svg>
