<svg width="40" height="40" viewBox="0 0 40 40" fill="none" xmlns="http://www.w3.org/2000/svg">
<g clip-path="url(#clip0_303_8575)">
<path d="M37.8141 9.36369H35.5839V7.52033C35.5839 7.17518 35.3041 6.89533 34.9589 6.89533H34.6777V3.53174C34.6777 3.18658 34.3979 2.90674 34.0527 2.90674H30.1147C29.7695 2.90674 29.4897 3.18658 29.4897 3.53174V6.89533H29.2084C28.8633 6.89533 28.5834 7.17518 28.5834 7.52033V9.36377H11.4166V7.52033C11.4166 7.17518 11.1367 6.89533 10.7916 6.89533H10.5104V3.53174C10.5104 3.18658 10.2305 2.90674 9.88539 2.90674H5.94727C5.60211 2.90674 5.32227 3.18658 5.32227 3.53174V6.89533H5.04109C4.69594 6.89533 4.41609 7.17518 4.41609 7.52033V9.36377H2.18594C0.980547 9.36377 0 10.3444 0 11.5497V34.9071C0 36.1124 0.980625 37.093 2.18594 37.093H37.8141C39.0195 37.093 40 36.1124 40 34.9071V11.5497C40 10.3443 39.0194 9.36369 37.8141 9.36369ZM30.7397 4.15674H33.4277V6.89533H30.7397V4.15674ZM29.8334 8.14533H34.3338V9.36377H29.8334V8.14533ZM6.57227 4.15674H9.26039V6.89533H6.57227V4.15674ZM5.66609 8.14533H10.1665V9.36377H5.66609V8.14533ZM2.18594 10.6137H37.8141C38.3302 10.6137 38.75 11.0335 38.75 11.5496V13.6697H1.25V11.5496C1.25 11.0335 1.66984 10.6137 2.18594 10.6137ZM38.75 14.9198V31.522H1.25V14.9198H38.75ZM37.8141 35.843H2.18594C1.66984 35.843 1.25 35.4231 1.25 34.9071V32.772H38.75V34.9071C38.75 35.4231 38.3302 35.843 37.8141 35.843ZM27.4852 20.4317C27.4852 20.0865 27.7651 19.8067 28.1102 19.8067H30.3002V17.6167C30.3002 17.2716 30.58 16.9917 30.9252 16.9917C31.2703 16.9917 31.5502 17.2716 31.5502 17.6167V19.8067H33.74C34.0852 19.8067 34.365 20.0865 34.365 20.4317C34.365 20.7768 34.0852 21.0567 33.74 21.0567H31.5502V23.2465C31.5502 23.5917 31.2703 23.8715 30.9252 23.8715C30.58 23.8715 30.3002 23.5917 30.3002 23.2465V21.0567H28.1102C27.7651 21.0567 27.4852 20.7768 27.4852 20.4317ZM5.635 20.8085C5.635 20.4633 5.91484 20.1835 6.26 20.1835H11.8898C12.235 20.1835 12.5148 20.4633 12.5148 20.8085C12.5148 21.1536 12.235 21.4335 11.8898 21.4335H6.26C5.91484 21.4335 5.635 21.1536 5.635 20.8085ZM15.5306 24.7543H18.7746L18.2784 29.0062C18.2462 29.2825 18.4005 29.5469 18.657 29.6548C18.7354 29.6878 18.8177 29.7037 18.899 29.7036C19.0836 29.7036 19.2638 29.6217 19.3853 29.4715L24.9555 22.5812C25.1069 22.3939 25.1372 22.1363 25.0334 21.9189C24.9296 21.7017 24.7102 21.5632 24.4694 21.5632H21.1857L21.4273 17.4143C21.4432 17.1413 21.2798 16.8897 21.0239 16.7932C20.7683 16.6968 20.4791 16.7779 20.3109 16.9934L15.0381 23.7447C14.891 23.933 14.8641 24.1887 14.9689 24.4035C15.0737 24.6181 15.2916 24.7543 15.5306 24.7543ZM20.063 19.3414L19.8993 22.152C19.8893 22.3237 19.9505 22.4921 20.0686 22.6172C20.1867 22.7424 20.3512 22.8133 20.5232 22.8133H23.1605L19.7702 27.0071L20.0975 24.2019C20.1182 24.0246 20.0622 23.8471 19.9435 23.7138C19.8249 23.5806 19.6551 23.5044 19.4766 23.5044H16.8117L20.063 19.3414Z" fill="#1A1A1A"/>
</g>
<defs>
<clipPath id="clip0_303_8575">
<rect width="40" height="40" fill="white"/>
</clipPath>
</defs>
</svg>
