<svg width="40" height="40" viewBox="0 0 40 40" fill="none" xmlns="http://www.w3.org/2000/svg">
<g clip-path="url(#clip0_303_8611)">
<path d="M21.0047 26.8005V25.8139C19.499 25.5149 18.3605 24.184 18.3605 22.592C18.3605 22.2239 18.6589 21.9255 19.027 21.9255C19.3951 21.9255 19.6935 22.2239 19.6935 22.592C19.6935 23.6684 20.5693 24.5441 21.6457 24.5441C22.7221 24.5441 23.5978 23.6684 23.5978 22.592C23.5978 21.5156 22.7221 20.6399 21.6457 20.6399C19.8342 20.6399 18.3605 19.1662 18.3605 17.3548C18.3605 15.7627 19.4991 14.432 21.0047 14.133V13.1372C21.0047 12.7691 21.3031 12.4707 21.6712 12.4707C22.0392 12.4707 22.3377 12.7691 22.3377 13.1372V14.1437C23.8178 14.4625 24.9307 15.7808 24.9307 17.3548C24.9307 17.7229 24.6322 18.0213 24.2642 18.0213C23.8961 18.0213 23.5977 17.7229 23.5977 17.3548C23.5977 16.2784 22.722 15.4027 21.6456 15.4027C20.5692 15.4027 19.6934 16.2784 19.6934 17.3548C19.6934 18.4312 20.5692 19.3069 21.6456 19.3069C23.457 19.3069 24.9307 20.7806 24.9307 22.592C24.9307 24.166 23.8178 25.4844 22.3377 25.8031V26.8005C22.3377 27.1685 22.0392 27.467 21.6712 27.467C21.3031 27.467 21.0047 27.1686 21.0047 26.8005ZM34.5995 7.01958C27.5148 -0.0653118 16.4221 -0.1093 9.25826 6.4763C5.87269 9.58852 3.78046 13.7917 3.36706 18.3114C3.33357 18.678 3.6035 19.0023 3.97008 19.0359C4.33699 19.0687 4.66099 18.7995 4.69457 18.4329C5.4887 9.75207 12.9345 2.95218 21.6457 2.95218C31.0313 2.95218 38.6671 10.5879 38.6671 19.9735C38.6671 32.2454 26.0117 40.4489 14.9108 35.5889C19.4696 30.6297 16.7603 22.8282 10.4693 21.4162C9.59834 14.6719 14.8799 8.68142 21.6742 8.68142C27.9037 8.68142 32.9717 13.7495 32.9717 19.9789C32.9717 26.2084 27.9038 31.2764 21.6742 31.2764C21.3062 31.2764 21.0077 31.5749 21.0077 31.9429C21.0077 32.311 21.3062 32.6094 21.6742 32.6094C28.6131 32.6094 34.3047 26.9161 34.3047 19.9789C34.3047 13.0401 28.6115 7.34842 21.6742 7.34842C14.2899 7.34842 8.36456 13.7828 9.1063 21.2249C6.64616 21.0792 4.289 21.9818 2.53577 23.735C-2.96194 29.2327 1.12887 38.381 8.59592 38.381C8.964 38.381 9.26242 38.0826 9.26242 37.7145C9.26242 37.3464 8.964 37.048 8.59592 37.048C4.59667 37.048 1.34307 33.7944 1.34307 29.7951C1.34307 25.3497 5.32407 21.9397 9.72481 22.6303C9.75263 22.6369 9.78113 22.6414 9.80995 22.6444C13.2333 23.2238 15.8488 26.2095 15.8488 29.7951C15.8487 33.1947 13.5917 34.9613 13.2561 35.3429C12.9711 35.6674 13.0646 36.1712 13.4461 36.372C25.2763 42.5535 40 33.6553 40 19.9735C39.9999 15.1025 38.0821 10.502 34.5995 7.01958ZM9.34582 27.0504H7.97524L8.49545 26.5028C8.74897 26.2359 8.73822 25.8141 8.47129 25.5605C8.20435 25.307 7.78254 25.3178 7.52902 25.5847L5.94517 27.2519C5.70073 27.5091 5.70073 27.9128 5.94517 28.17L7.52902 29.8373C7.78263 30.1043 8.2046 30.1149 8.47129 29.8615C8.73822 29.6079 8.74897 29.1861 8.49553 28.9192L7.98658 28.3834H9.3459C10.4025 28.3834 11.2621 29.243 11.2621 30.2996C11.2621 31.3562 10.4025 32.2158 9.3459 32.2158H6.09172C5.72364 32.2158 5.42522 32.5142 5.42522 32.8823C5.42522 33.2504 5.72364 33.5488 6.09172 33.5488H9.34582C11.1375 33.5488 12.595 32.0912 12.595 30.2996C12.595 28.508 11.1375 27.0504 9.34582 27.0504Z" fill="#1A1A1A"/>
</g>
<defs>
<clipPath id="clip0_303_8611">
<rect width="40" height="40" fill="white"/>
</clipPath>
</defs>
</svg>
