<svg width="36" height="36" viewBox="0 0 36 36" fill="none" xmlns="http://www.w3.org/2000/svg">
<path d="M14.4364 32.1934C21.1857 32.1934 26.6571 26.7221 26.6571 19.9728C26.6571 13.2236 21.1857 7.7522 14.4364 7.7522C7.68718 7.7522 2.21582 13.2236 2.21582 19.9728C2.21582 26.7221 7.68718 32.1934 14.4364 32.1934Z" fill="#B0EF8F"/>
<path d="M14.5743 29.4185L14.4193 29.1544C12.0516 25.1203 5.75978 16.5594 5.69623 16.4734L5.60547 16.3501L7.74906 14.2316L14.5345 18.9697C18.8068 13.4258 22.7926 9.61794 25.3925 7.39431C28.2365 4.96189 30.0878 3.84208 30.1065 3.83135L30.1486 3.80615H33.7847L33.4374 4.11548C24.5046 12.0719 14.8224 28.9825 14.726 29.1524L14.5743 29.4185Z" fill="#009045"/>
</svg>
