<svg width="40" height="40" viewBox="0 0 40 40" fill="none" xmlns="http://www.w3.org/2000/svg">
<path d="M35.7692 1.9231H4.23078C1.89789 1.9231 0 3.82106 0 6.15388V23.4615V26.1539C0 28.4867 1.89789 30.3847 4.23078 30.3847H14.4463L13.2155 36.5385H9.23078C8.80594 36.5385 8.46156 36.8829 8.46156 37.3077C8.46156 37.7325 8.80594 38.0769 9.23078 38.0769H30.7692C31.1941 38.0769 31.5384 37.7325 31.5384 37.3077C31.5384 36.8829 31.1941 36.5385 30.7692 36.5385H26.7845L25.5537 30.3847H35.7692C38.102 30.3847 40 28.4868 40 26.1539V23.4615V6.15388C40 3.82106 38.1021 1.9231 35.7692 1.9231ZM14.7845 36.5385L16.0152 30.3847H23.9848L25.2155 36.5385H14.7845ZM38.4616 26.1539C38.4616 27.6384 37.2538 28.8462 35.7692 28.8462H4.23078C2.74625 28.8462 1.53844 27.6385 1.53844 26.1539V24.2308H38.4615V26.1539H38.4616ZM38.4616 22.6924H1.53844V21.154H6.15383C6.57867 21.154 6.92305 20.8096 6.92305 20.3847C6.92305 19.9599 6.57867 19.6155 6.15383 19.6155H1.53844V6.15388C1.53844 4.66935 2.74617 3.46153 4.23078 3.46153H35.7692C37.2537 3.46153 38.4616 4.66927 38.4616 6.15388V22.6924Z" fill="white"/>
<path d="M20 25C19.1517 25 18.4615 25.6902 18.4615 26.5384C18.4615 27.3867 19.1517 28.0769 20 28.0769C20.8483 28.0769 21.5384 27.3867 21.5384 26.5384C21.5384 25.6902 20.8483 25 20 25Z" fill="white"/>
<path d="M26.2978 16.655L24.666 15.0232L26.0259 13.6635C26.2236 13.4657 26.2984 13.1763 26.2213 12.9074C26.1442 12.6387 25.9273 12.4329 25.6548 12.3699L18.5838 10.7381C18.3254 10.6787 18.0545 10.7562 17.8668 10.9438C17.6793 11.1313 17.6016 11.4022 17.6612 11.6607L19.2931 18.7317C19.356 19.0042 19.5618 19.2211 19.8306 19.2982C20.0995 19.3753 20.3888 19.3004 20.5866 19.1028L21.9464 17.7429L23.5782 19.3747C23.7284 19.5249 23.9253 19.6 24.1221 19.6C24.3189 19.6 24.5159 19.5249 24.666 19.3747L26.2978 17.7429C26.5981 17.4425 26.5981 16.9555 26.2978 16.655ZM24.1221 17.7429L22.4903 16.1111C22.3401 15.9609 22.1432 15.8858 21.9464 15.8858C21.7496 15.8858 21.5527 15.9609 21.4025 16.1111L20.4802 17.0335L19.4372 12.5141L23.9566 13.557L23.0342 14.4793C22.7338 14.7797 22.7338 15.2668 23.0342 15.5672L24.666 17.199L24.1221 17.7429Z" fill="white"/>
<path d="M16.8336 8.82276L16.0644 8.05354C15.764 7.75315 15.2769 7.75315 14.9765 8.05354C14.6761 8.35393 14.6761 8.84096 14.9765 9.14143L15.7458 9.91065C15.896 10.0609 16.0929 10.136 16.2897 10.136C16.4865 10.136 16.6835 10.0609 16.8336 9.91065C17.134 9.61034 17.134 9.12323 16.8336 8.82276Z" fill="white"/>
<path d="M15.334 10.9053H14.2461C13.8213 10.9053 13.4769 11.2496 13.4769 11.6745C13.4769 12.0993 13.8213 12.4437 14.2461 12.4437H15.334C15.7588 12.4437 16.1032 12.0993 16.1032 11.6745C16.1032 11.2496 15.7588 10.9053 15.334 10.9053Z" fill="white"/>
<path d="M16.8337 13.4382C16.5334 13.1378 16.0463 13.1378 15.7459 13.4382L14.9766 14.2074C14.6762 14.5078 14.6762 14.9949 14.9766 15.2953C15.1269 15.4455 15.3237 15.5206 15.5205 15.5206C15.7173 15.5206 15.9143 15.4455 16.0644 15.2953L16.8337 14.5261C17.1341 14.2258 17.1341 13.7387 16.8337 13.4382Z" fill="white"/>
<path d="M22.2184 8.05354C21.918 7.75315 21.431 7.75315 21.1305 8.05354L20.3613 8.82276C20.0609 9.12315 20.0609 9.61026 20.3613 9.91065C20.5115 10.0609 20.7084 10.136 20.9053 10.136C21.1021 10.136 21.299 10.0609 21.4492 9.91065L22.2184 9.14143C22.5188 8.84112 22.5188 8.35401 22.2184 8.05354Z" fill="white"/>
<path d="M18.5976 6.55371C18.1727 6.55371 17.8284 6.89809 17.8284 7.32293V8.41074C17.8284 8.83559 18.1727 9.17996 18.5976 9.17996C19.0224 9.17996 19.3668 8.83559 19.3668 8.41074V7.32293C19.3668 6.89809 19.0224 6.55371 18.5976 6.55371Z" fill="white"/>
<path d="M9.21543 20.2346C9.20621 20.1854 9.19082 20.137 9.1716 20.09C9.15238 20.0438 9.12855 19.9992 9.10082 19.9577C9.07316 19.9153 9.04082 19.8761 9.00543 19.8407C8.97004 19.8053 8.93082 19.7731 8.88848 19.7453C8.84691 19.7177 8.8023 19.6938 8.75543 19.6746C8.70926 19.6553 8.66082 19.6399 8.6116 19.6307C8.51238 19.6107 8.41082 19.6107 8.3116 19.6307C8.26238 19.6399 8.21395 19.6553 8.16777 19.6746C8.12082 19.6938 8.07621 19.7176 8.03473 19.7453C7.99238 19.773 7.95316 19.8053 7.91777 19.8407C7.88238 19.8761 7.85012 19.9153 7.82238 19.9577C7.79473 19.9992 7.77082 20.0438 7.7516 20.09C7.73238 20.137 7.71699 20.1854 7.70777 20.2346C7.69777 20.2838 7.69238 20.3346 7.69238 20.3846C7.69238 20.4346 7.69777 20.4854 7.70777 20.5346C7.71699 20.5838 7.73238 20.6323 7.7516 20.6785C7.77082 20.7254 7.79465 20.77 7.82238 20.8115C7.85004 20.8538 7.88238 20.8931 7.91777 20.9285C7.95316 20.9638 7.99238 20.9961 8.03473 21.0238C8.07629 21.0515 8.1209 21.0754 8.16777 21.0946C8.21395 21.1138 8.26238 21.1292 8.3116 21.1392C8.36082 21.1492 8.4116 21.1538 8.4616 21.1538C8.5116 21.1538 8.56238 21.1492 8.6116 21.1392C8.66082 21.1292 8.70926 21.1138 8.75543 21.0946C8.80238 21.0754 8.84699 21.0516 8.88848 21.0238C8.93082 20.9962 8.97004 20.9638 9.00543 20.9285C9.04082 20.8931 9.07309 20.8538 9.10082 20.8115C9.12848 20.7699 9.15238 20.7253 9.1716 20.6785C9.19082 20.6323 9.20621 20.5838 9.21543 20.5346C9.22543 20.4854 9.23082 20.4346 9.23082 20.3846C9.23082 20.3346 9.22543 20.2838 9.21543 20.2346Z" fill="white"/>
</svg>
