<svg width="14" height="15" viewBox="0 0 14 15" fill="none" xmlns="http://www.w3.org/2000/svg">
<g clip-path="url(#clip0_502_318)">
<path d="M8.77917 3.41683C9.34893 3.52799 9.87256 3.80665 10.283 4.21712C10.6935 4.6276 10.9722 5.15123 11.0833 5.721M8.77917 1.0835C9.96291 1.215 11.0668 1.7451 11.9095 2.58675C12.7522 3.4284 13.2837 4.53158 13.4167 5.71516M12.8333 10.3702V12.1202C12.834 12.2826 12.8007 12.4434 12.7356 12.5923C12.6705 12.7411 12.5751 12.8748 12.4554 12.9846C12.3357 13.0944 12.1943 13.178 12.0404 13.2301C11.8865 13.2821 11.7235 13.3015 11.5617 13.2868C9.76666 13.0918 8.04242 12.4784 6.5275 11.496C5.11807 10.6004 3.92311 9.40543 3.0275 7.996C2.04166 6.4742 1.42814 4.74158 1.23667 2.9385C1.22209 2.77719 1.24126 2.61461 1.29296 2.46111C1.34466 2.30761 1.42775 2.16656 1.53695 2.04694C1.64615 1.92732 1.77905 1.83174 1.92721 1.7663C2.07537 1.70086 2.23553 1.66698 2.3975 1.66683H4.1475C4.4306 1.66404 4.70505 1.76429 4.9197 1.94889C5.13435 2.13349 5.27455 2.38984 5.31417 2.67016C5.38803 3.2302 5.52501 3.78009 5.7225 4.30933C5.80099 4.51812 5.81797 4.74503 5.77145 4.96318C5.72492 5.18132 5.61684 5.38156 5.46 5.54016L4.71917 6.281C5.54958 7.7414 6.75877 8.95059 8.21917 9.781L8.96 9.04016C9.1186 8.88333 9.31884 8.77524 9.53699 8.72872C9.75514 8.68219 9.98205 8.69918 10.1908 8.77766C10.7201 8.97515 11.27 9.11213 11.83 9.186C12.1134 9.22597 12.3722 9.3687 12.5571 9.58703C12.7421 9.80537 12.8404 10.0841 12.8333 10.3702Z" stroke="#020D00" stroke-linecap="round" stroke-linejoin="round"/>
</g>
<defs>
<clipPath id="clip0_502_318">
<rect width="14" height="14" fill="white" transform="translate(0 0.5)"/>
</clipPath>
</defs>
</svg>
