<svg width="17" height="16" viewBox="0 0 17 16" fill="none" xmlns="http://www.w3.org/2000/svg">
<path d="M13.5195 10.2554V5.74468C14.1097 5.68608 14.6661 5.44187 15.1088 5.04716C15.5516 4.65245 15.8577 4.12754 15.9834 3.54788C16.1091 2.96822 16.0477 2.36365 15.8082 1.82104C15.5687 1.27843 15.1633 0.825714 14.6504 0.527959C14.1374 0.230203 13.5432 0.102733 12.9533 0.163866C12.3633 0.225 11.8079 0.471589 11.3669 0.868198C10.9259 1.26481 10.6219 1.79102 10.4987 2.37121C10.3756 2.95141 10.4395 3.55571 10.6814 4.09729L5.7392 6.92138C5.48988 6.32372 5.04122 5.83088 4.46953 5.52669C3.89785 5.2225 3.23843 5.12574 2.60346 5.25287C1.96848 5.38 1.39715 5.72318 0.986643 6.22402C0.576138 6.72486 0.351807 7.35245 0.351807 8.00003C0.351807 8.6476 0.576138 9.27519 0.986643 9.77603C1.39715 10.2769 1.96848 10.62 2.60346 10.7472C3.23843 10.8743 3.89785 10.7776 4.46953 10.4734C5.04122 10.1692 5.48988 9.67633 5.7392 9.07867L10.6814 11.9028C10.4405 12.4436 10.3771 13.0469 10.5005 13.626C10.6239 14.2051 10.9276 14.7302 11.3681 15.1259C11.8085 15.5216 12.363 15.7676 12.952 15.8285C13.5409 15.8894 14.134 15.762 14.6461 15.4648C15.1582 15.1676 15.5629 14.7157 15.8021 14.1741C16.0414 13.6325 16.1028 13.029 15.9777 12.4503C15.8525 11.8716 15.5472 11.3474 15.1055 10.953C14.6639 10.5587 14.1086 10.3144 13.5195 10.2554ZM5.90449 8.52954C5.97173 8.17973 5.97173 7.82032 5.90449 7.47051L10.9615 4.58198C11.1924 4.90696 11.4901 5.17883 11.8346 5.37936C12.1791 5.57989 12.5625 5.70444 12.9591 5.74468V10.2554C12.5625 10.2956 12.1791 10.4202 11.8346 10.6207C11.49 10.8212 11.1924 11.0931 10.9615 11.4181L5.90449 8.52954Z" fill="white"/>
</svg>
