<svg width="40" height="40" viewBox="0 0 40 40" fill="none" xmlns="http://www.w3.org/2000/svg">
<path d="M9.75825 10.5881C9.75825 9.28506 10.1432 8.01133 10.8645 6.92793C11.5857 5.84453 12.6109 5.00012 13.8103 4.50149C15.0097 4.00285 16.3295 3.87239 17.6028 4.12659C18.8761 4.38079 20.0457 5.00824 20.9637 5.9296C21.8816 6.85095 22.5068 8.02483 22.7601 9.30279C23.0133 10.5807 22.8834 11.9054 22.3865 13.1092C21.8897 14.313 21.0484 15.3419 19.969 16.0658C18.8895 16.7897 17.6205 17.1761 16.3222 17.1761C14.5813 17.1761 12.9118 16.482 11.6808 15.2465C10.4498 14.011 9.75825 12.3353 9.75825 10.5881ZM21.3945 30.8793C20.9598 30.4723 20.65 29.9491 20.5018 29.3713C20.3535 28.7935 20.3729 28.1853 20.5576 27.6182C20.7373 27.0432 21.0767 26.5317 21.536 26.1437C21.9952 25.7557 22.5553 25.5072 23.1504 25.4276L25.2016 25.1312C25.2016 25.1312 25.5298 25.0999 25.6283 24.9006L26.2847 23.583C26.3373 23.4876 26.3601 23.3786 26.3503 23.2701C26.3299 23.1772 26.2845 23.0918 26.2191 23.023C25.3561 22.152 24.3192 21.4742 23.1766 21.0342C22.0339 20.5942 20.8114 20.402 19.5894 20.4701H13.0255C6.36303 20.4701 4 25.3618 4 29.5616C4 33.3168 5.9856 35.2932 9.74348 35.2932H22.1986C22.4612 35.2932 22.6286 35.0956 22.7073 34.6674L23.0355 32.7733C23.0531 32.6927 23.0487 32.6088 23.0227 32.5306C22.9967 32.4523 22.9501 32.3825 22.8878 32.3286L21.3945 30.8793ZM35.7811 29.0988C35.8782 29.0051 35.9468 28.8857 35.9792 28.7544C36.0115 28.6232 36.0061 28.4854 35.9637 28.3571C35.9213 28.2288 35.8436 28.1151 35.7396 28.0292C35.6356 27.9434 35.5094 27.8888 35.3758 27.8718L32.1069 27.4057C31.9905 27.3895 31.8796 27.3452 31.7839 27.2767C31.6882 27.2081 31.6104 27.1173 31.5572 27.0121L30.1394 24.1924C30.073 24.0631 29.9724 23.9547 29.8486 23.879C29.7249 23.8033 29.5828 23.7633 29.4379 23.7633C29.293 23.7633 29.1508 23.8033 29.0271 23.879C28.9034 23.9547 28.8028 24.0631 28.7363 24.1924L27.3202 27.0121C27.2669 27.1172 27.1891 27.208 27.0934 27.2765C26.9977 27.345 26.8869 27.3894 26.7704 27.4057L23.5016 27.8718C23.3676 27.8882 23.241 27.9424 23.1365 28.0282C23.0321 28.114 22.9541 28.2278 22.9116 28.3564C22.8691 28.485 22.8639 28.6231 22.8966 28.7545C22.9293 28.886 22.9985 29.0054 23.0962 29.0988L25.4593 31.3618C25.5444 31.4425 25.6083 31.5431 25.6452 31.6546C25.6822 31.7661 25.691 31.8851 25.671 32.0009L25.1311 35.0956C25.1083 35.2391 25.1258 35.3861 25.1817 35.5201C25.2376 35.6541 25.3296 35.7698 25.4474 35.8541C25.5653 35.9385 25.7042 35.9882 25.8486 35.9977C25.9931 36.0071 26.1373 35.9759 26.265 35.9076L29.099 34.445C29.204 34.3906 29.3205 34.3622 29.4387 34.3622C29.5569 34.3622 29.6734 34.3906 29.7784 34.445L32.614 35.9092C32.7417 35.9771 32.8857 36.0079 33.0299 35.9983C33.174 35.9886 33.3127 35.9388 33.4302 35.8545C33.5478 35.7702 33.6396 35.6547 33.6955 35.521C33.7513 35.3872 33.7689 35.2405 33.7463 35.0973L33.2097 31.9992C33.1897 31.8836 33.1985 31.7648 33.2351 31.6533C33.2717 31.5419 33.3352 31.4412 33.4197 31.3602L35.7811 29.0988Z" fill="#23971C"/>
</svg>
